PathFileType	4	(x/y/z)	S04_P20_T04.trc
DataRate	CameraRate	NumFrames	NumMarkers	Units	OrigDataRate	OrigDataStartFrame	OrigNumFrames
240	240	4	51	mm	240	180	358
Frame#	Time	Sternum			R.Acromium			L.Acromium			Top.Head			R.ASIS			L.ASIS			R.PSIS			L.PSIS			R.Great.Tro			L.Great.Tro			R.Iliac.Crest			L.Iliac.Crest			V.Sacral			R.Thigh.Upper.Post			R.Thigh.Lower.Ant			R.Thigh.Lower.Post			R.Thigh.Upper.Ant			R.Knee.Lat			R.Knee.Med			R.Shank.Upper.Post			R.Shank.Lower.Ant			R.Shank.Lower.Post			R.Shank.Upper.Ant			R.Ankle.Lat			R.Ankle.Med			R.Heel.Upper			R.Heel.Med			R.Heel.Lat			R.Toe.Lat			R.Toe.Med			R.Toe.Tip			L.Thigh.Upper.Post			L.Thigh.Lower.Ant			L.Thigh.Lower.Post			L.Thigh.Upper.Ant			L.Knee.Lat			L.Knee.Med			L.Shank.Upper.Post			L.Shank.Lower.Ant			L.Shank.Lower.Post			L.Shank.Upper.Ant			L.Ankle.Lat			L.Ankle.Med			L.Heel.Upper			L.Heel.Med			L.Heel.Lat			L.Toe.Lat			L.Toe.Med			L.Toe.Tip			Cervical.Spine			Back			
		X1	Y1	Z1	X2	Y2	Z2	X3	Y3	Z3	X4	Y4	Z4	X5	Y5	Z5	X6	Y6	Z6	X7	Y7	Z7	X8	Y8	Z8	X9	Y9	Z9	X10	Y10	Z10	X11	Y11	Z11	X12	Y12	Z12	X13	Y13	Z13	X14	Y14	Z14	X15	Y15	Z15	X16	Y16	Z16	X17	Y17	Z17	X18	Y18	Z18	X19	Y19	Z19	X20	Y20	Z20	X21	Y21	Z21	X22	Y22	Z22	X23	Y23	Z23	X24	Y24	Z24	X25	Y25	Z25	X26	Y26	Z26	X27	Y27	Z27	X28	Y28	Z28	X29	Y29	Z29	X30	Y30	Z30	X31	Y31	Z31	X32	Y32	Z32	X33	Y33	Z33	X34	Y34	Z34	X35	Y35	Z35	X36	Y36	Z36	X37	Y37	Z37	X38	Y38	Z38	X39	Y39	Z39	X40	Y40	Z40	X41	Y41	Z41	X42	Y42	Z42	X43	Y43	Z43	X44	Y44	Z44	X45	Y45	Z45	X46	Y46	Z46	X47	Y47	Z47	X48	Y48	Z48	X49	Y49	Z49	X50	Y50	Z50	X51	Y51	Z51	

180	0.74583	-392.13	1281.3	276.24	-496.62	1510.9	462.47	-530.07	1501.4	114.74	-394.93	1824.3	271.93	-423.97	1003.6	415.43	-438.46	1020.3	166.99	-644.76	1031.4	325.37	-639.07	1034.5	243.63	-509.05	920.25	479.39	-546.19	928.73	101.23	-510.63	1091.7	460.33	-541.63	1100.2	126	-661.54	990.53	285.18	-481.61	659.93	457.3	-399.32	587.25	418.42	-472.44	570.78	439.58	-400.77	695.48	444.41	-440.94	506.33	425.98	-470.05	503.47	296.68	-520.13	280.86	419.36	-459.83	203.57	368.47	-524	211.97	401.21	-458.03	272.13	395.13	-518.93	100.77	375.23	-502.52	116.8	286.28	-587.71	72.999	321.03	-578.31	43.157	290.13	-581.12	40.122	354.83	-410.01	38.536	400.12	-375.67	42.962	279.88	-313.14	62.151	326.56	-476.91	692.6	104.54	-367	630.95	96.236	-436.1	612.75	113.18	-412.39	709.15	86.303	-378.89	540.25	111.28	-355.91	523.17	238.08	-539.87	439.43	134.59	-531.82	329.93	118.1	-577.18	371.28	138.29	-494.56	397.45	113.16	-635.27	215.41	139.66	-611.78	214.65	230	-708.31	228.37	198.38	-712.66	203.04	232.06	-724.84	205.77	170.92	-587.26	100.31	106.37	-538.71	83.656	213.08	-493.67	65.486	156.46	-556.53	1565.7	297.01	-652.84	1307.4	279.52
181	0.75	-386.9	1281.9	276.16	-491	1511.5	462.55	-524.89	1502	114.89	-389.39	1824.8	271.97	-419.1	1003.8	415.61	-433.12	1021	167.12	-639.57	1032	324.9	-633.8	1035.3	243.21	-504.58	920.61	479.2	-540.45	929.64	100.9	-505.84	1092.2	460.29	-536.39	1100.9	125.94	-656.33	991.28	284.68	-479.05	660.19	457.24	-397.29	586.8	418.54	-470.55	570.93	439.68	-397.92	695.07	444.44	-439.61	506.15	426.08	-468.55	503.44	296.72	-519.57	281.01	419.32	-459.44	203.52	368.51	-523.65	212.12	401.1	-457.44	272.06	395.2	-518.8	100.89	375.11	-502.33	116.87	286.15	-587.71	73.128	320.96	-578.43	43.221	290.04	-581.07	40.26	354.79	-409.99	38.502	400.14	-375.6	42.824	279.84	-313.1	61.939	326.56	-469.57	693.78	104	-359.17	632.86	96.656	-428.3	614.17	112.87	-405	710.76	86.422	-370.71	541.86	111.67	-348.21	525.06	238.39	-529.95	437.69	134.16	-519.63	328.37	117.89	-565.93	368.8	137.82	-483.78	396.59	112.98	-620.61	211.46	139.08	-597.65	211.31	229.53	-694.37	222.61	197.35	-698.23	197.17	231.03	-710.12	199.62	169.81	-569.48	97.648	106.05	-521.21	82.194	213.08	-475.48	65.102	156.77	-551.09	1566.2	297.2	-647.48	1308	279.77
182	0.75417	-381.66	1282.4	276.07	-485.37	1512.1	462.63	-519.7	1502.6	115.02	-383.88	1825.3	271.99	-414.24	1004	415.78	-427.78	1021.7	167.25	-634.38	1032.7	324.43	-628.53	1036	242.78	-500.1	920.93	479	-534.72	930.49	100.57	-501.02	1092.7	460.25	-531.17	1101.6	125.89	-651.11	991.98	284.18	-476.5	660.44	457.17	-395.28	586.35	418.64	-468.67	571.08	439.76	-395.08	694.64	444.47	-438.3	505.98	426.18	-467.08	503.41	296.75	-519.04	281.17	419.27	-459.05	203.48	368.54	-523.31	212.27	400.99	-456.88	271.99	395.26	-518.67	101	374.99	-502.14	116.93	286.01	-587.7	73.262	320.88	-578.56	43.283	289.94	-581.03	40.397	354.75	-409.98	38.471	400.16	-375.53	42.687	279.8	-313.06	61.732	326.55	-462.3	694.9	103.46	-351.45	634.68	97.06	-420.62	615.54	112.54	-397.68	712.3	86.53	-362.65	543.39	112.03	-340.63	526.85	238.66	-520.04	435.8	133.64	-507.39	326.7	117.67	-554.65	366.19	137.29	-473	395.62	112.78	-605.8	207.43	138.51	-583.38	207.9	229.07	-680.24	216.76	196.32	-683.6	191.23	230.02	-695.19	193.37	168.71	-551.57	94.965	105.77	-503.59	80.753	213.12	-457.19	64.748	157.12	-545.65	1566.8	297.39	-642.11	1308.5	280
183	0.75833	-376.42	1282.8	275.98	-479.72	1512.6	462.7	-514.49	1503.1	115.15	-378.38	1825.7	271.99	-409.38	1004.2	415.94	-422.43	1022.3	167.38	-629.2	1033.3	323.97	-623.27	1036.7	242.36	-495.63	921.21	478.8	-529	931.29	100.23	-496.17	1093.1	460.2	-525.94	1102.2	125.83	-645.9	992.62	283.68	-473.97	660.67	457.08	-393.3	585.89	418.74	-466.81	571.21	439.84	-392.26	694.2	444.49	-437.02	505.8	426.27	-465.63	503.37	296.77	-518.52	281.33	419.21	-458.68	203.43	368.58	-522.99	212.41	400.86	-456.33	271.92	395.32	-518.55	101.1	374.86	-501.96	116.99	285.87	-587.71	73.399	320.8	-578.69	43.342	289.83	-580.98	40.534	354.71	-409.96	38.441	400.18	-375.46	42.551	279.76	-313.01	61.529	326.55	-455.12	695.97	102.92	-343.85	636.41	97.447	-413.05	616.84	112.2	-390.46	713.77	86.627	-354.72	544.82	112.36	-333.18	528.56	238.9	-510.14	433.77	133.06	-495.12	324.94	117.44	-543.32	363.45	136.72	-462.22	394.54	112.55	-590.84	203.34	137.94	-568.99	204.43	228.6	-665.92	210.82	195.31	-668.77	185.22	229.02	-680.06	187.05	167.63	-533.53	92.284	105.53	-485.85	79.344	213.2	-438.82	64.437	157.5	-540.19	1567.2	297.57	-636.74	1309	280.22
